<?xml version="1.0" encoding="utf-8"?>
<!-- Generator: Adobe Illustrator 16.0.0, SVG Export Plug-In . SVG Version: 6.00 Build 0)  -->
<!DOCTYPE svg PUBLIC "-//W3C//DTD SVG 1.1//EN" "http://www.w3.org/Graphics/SVG/1.1/DTD/svg11.dtd">
<svg version="1.1" id="Layer_1" xmlns="http://www.w3.org/2000/svg" xmlns:xlink="http://www.w3.org/1999/xlink" x="0px" y="0px"
	 width="392.334px" height="386.365px" viewBox="0 -0.085 392.334 386.365" enable-background="new 0 -0.085 392.334 386.365"
	 xml:space="preserve">
<g>
	<rect x="60.584" y="163.264" fill="#FFFFFF" width="4.432" height="57.273"/>
	<path fill="#FFFFFF" d="M132.534,208.168c-3.43,8.279-11.082,12.644-19.717,12.644h-0.176c-6.303,0.013-11.705-2.329-15.762-6.41
		c-5.777-5.799-5.836-12.886-5.836-21.158c0-0.479,0.004-0.952,0.004-1.418v-1.415c-0.004-8.27,0.049-15.367,5.832-21.156
		c4.057-4.084,9.459-6.426,15.762-6.413c2.688,0,5.26,0.385,7.646,1.173l-1.387,4.213c-1.898-0.63-3.996-0.955-6.256-0.955
		c-5.238,0.022-9.295,1.812-12.635,5.125c-4.314,4.292-4.525,9.542-4.525,18.014v1.415v1.418c0,8.461,0.211,13.725,4.525,18.022
		c3.34,3.294,7.396,5.093,12.635,5.108c7.35-0.062,12.971-3.293,15.805-9.92L132.534,208.168z M118.901,168.224l1.387-4.214
		c5.4,1.762,9.816,5.676,12.219,11.377l-4.086,1.733C126.459,172.523,123.18,169.649,118.901,168.224"/>
	<polygon fill="#FFFFFF" points="217.985,220.465 238.842,163.285 250.004,163.285 270.911,220.465 266.161,220.465 
		246.897,167.713 241.936,167.713 222.713,220.465 	"/>
	<rect x="249.877" y="201.979" fill="#FFFFFF" width="11.049" height="4.443"/>
	<path fill="#FFFFFF" d="M176.92,198.74v-4.428h4.398c0.607,0,1.17-0.114,1.662-0.31l1.564-0.563
		c4.418-1.671,8.129-5.342,8.168-11.768c-0.113-7.725-5.238-13.828-14.898-13.936h-18.453v52.729h-4.438v-57.17h22.891
		c5.869-0.01,10.781,2.036,14.156,5.42c3.379,3.379,5.186,8.012,5.18,12.956c0.039,7.258-3.959,12.369-8.791,14.935l12.369,23.9
		h-5.006l-11.262-21.767H176.92z"/>
	<path fill="#FFFFFF" d="M310.057,198.74v-4.428h4.4c0.605,0,1.176-0.114,1.664-0.31l1.568-0.563
		c4.416-1.671,8.125-5.342,8.162-11.768c-0.113-7.725-5.24-13.828-14.896-13.936h-18.441v52.729h-4.453v-57.17h22.895
		c5.871-0.01,10.787,2.036,14.16,5.42c3.379,3.379,5.178,8.012,5.174,12.956c0.039,7.258-3.957,12.369-8.793,14.935l12.379,23.9
		h-5.01l-11.264-21.767H310.057z"/>
	<g>
		<rect x="56.385" y="159.06" fill="#FFFFFF" width="12.833" height="65.682"/>
		<path fill="#FFFFFF" d="M124.586,204.799c-2.1,4.91-6.014,7.321-11.93,7.368c-3.934-0.009-7.012-1.248-9.682-3.883
			c-2.994-2.98-3.287-6.684-3.287-15.045v-2.836c0-8.364,0.293-12.061,3.281-15.032c2.67-2.65,5.746-3.889,9.676-3.904
			c1.789,0,3.451,0.252,4.93,0.737c3.285,1.097,5.566,3.246,6.984,6.564l1.652,3.854L138,177.612l-1.623-3.854
			c-2.236-5.32-6.033-9.502-10.895-12.089l0.113-0.338l-3.883-1.276c-0.037-0.009-0.08-0.024-0.115-0.037
			c-0.041-0.016-0.08-0.032-0.121-0.041l-3.865-1.261l-0.102,0.306c-1.586-0.259-3.225-0.391-4.908-0.391
			c-7.262,0-13.732,2.65-18.695,7.651c-7.07,7.078-7.062,15.738-7.061,24.121l-0.002,2.836c0,8.377,0,17.031,7.053,24.112
			c4.969,5.008,11.434,7.654,18.682,7.654h0.002v-4.197v-0.233h0.004l-0.004,0.233l0.24,4.197c10.826,0,19.648-5.688,23.596-15.23
			l1.596-3.857l-11.781-4.957L124.586,204.799z"/>
		<polygon fill="#FFFFFF" points="235.905,159.085 211.983,224.666 225.651,224.666 244.42,173.172 253.402,197.778 
			245.674,197.778 245.674,210.623 258.091,210.623 263.217,224.666 276.911,224.666 252.934,159.085 		"/>
		<path fill="#FFFFFF" d="M201.356,181.677c0.002-6.133-2.273-11.789-6.406-15.924c-4.279-4.295-10.342-6.652-17.129-6.652h-27.092
			v65.565h12.842v-52.733h14.205c6.736,0.076,10.656,3.644,10.738,9.707c-0.021,3.869-1.855,6.514-5.395,7.847l-1.801,0.621h-8.6
			v12.832h9.193l11.264,21.773h14.461l-13.822-26.705C198.629,194.075,201.391,188.207,201.356,181.677z"/>
		<path fill="#FFFFFF" d="M326.959,198.008c4.809-3.933,7.566-9.795,7.535-16.331c0.006-6.136-2.27-11.792-6.404-15.924
			c-4.279-4.292-10.344-6.652-17.131-6.652h-27.09v65.562h12.846V171.93h14.193c6.732,0.075,10.654,3.644,10.74,9.706
			c-0.02,3.87-1.859,6.515-5.395,7.848l-1.561,0.57l-8.834,0.054v12.832h9.189l11.27,21.773h14.463L326.959,198.008z"/>
	</g>
	<g>
		<g>
			<defs>
				<path id="SVGID_1_" d="M190.735,270.403c-18.074-0.01-36.713-5.738-52.816-18.165l-2.152,2.799
					c16.73,12.908,36.152,18.896,54.973,18.896c21.619-0.006,42.484-7.897,57.658-22.293l-2.426-2.559v-0.01
					C231.504,262.805,211.512,270.403,190.735,270.403 M306.168,242.232c-17.484,45.652-64.111,80.929-120.84,80.92
					c-8.402,0-17.023-0.77-25.805-2.396l-0.646,3.479c8.998,1.661,17.836,2.455,26.451,2.455
					c58.23-0.01,106.123-36.176,124.133-83.191L306.168,242.232L306.168,242.232z M79.063,243.492
					c24.498,39.784,67.264,62.972,109.963,62.979c5.062,0,10.121-0.324,15.156-0.993c5.68-0.743,11.146-1.868,16.404-3.331
					l-0.945-3.4l-0.004-0.009c-5.096,1.421-10.406,2.518-15.914,3.239c-4.879,0.64-9.787,0.955-14.697,0.955
					c-41.422,0.01-83.115-22.545-106.963-61.286L79.063,243.492z M0,198.156c11.253,61.97,40.978,105.52,96.579,135.543
					c27.357,14.85,55.881,21.562,83.309,21.559c9.596,0,19.061-0.825,28.305-2.398l-1.734-10.153v-0.004
					c-8.672,1.481-17.559,2.251-26.57,2.251c-25.758-0.004-52.539-6.284-78.393-20.314c-53.187-29.019-80.242-68.594-91.359-128.346
					L0,198.156z M351.473,187.861L351.473,187.861c1.012,7.176,1.525,14.468,1.525,21.805
					c-0.012,40.931-15.965,83.409-51.254,116.934c-36.178,34.231-73.688,49.311-119.324,49.387c-9.928,0-20.236-0.738-30.988-2.162
					l-1.352,10.217c11.146,1.475,21.908,2.24,32.34,2.24h0.324c47.854,0,88.607-16.532,126.09-52.216
					c37.363-35.466,54.482-80.809,54.463-124.402c0-7.815-0.541-15.587-1.619-23.245L351.473,187.861z M203.723,109.472
					c-21.475,2.836-38.627,13.766-49.773,28.356l2.803,2.149c-0.004,0-0.004,0-0.004,0h0.006h-0.002
					c10.623-13.889,26.895-24.282,47.43-27.005c3.184-0.422,6.398-0.63,9.619-0.63c22.475,0,45.111,10.145,61.125,28.076
					l2.635-2.352c-16.678-18.666-40.219-29.248-63.76-29.251C210.434,108.817,207.063,109.031,203.723,109.472 M174.932,86.224
					l1.361,3.262c12.547-5.229,26.326-8.105,40.582-8.105c17.277,0,35.246,4.22,52.572,13.627
					c18.291,9.924,33.633,24.943,44.625,43.073l3.025-1.831c-11.307-18.634-27.09-34.102-45.963-44.344
					c-17.842-9.685-36.41-14.049-54.26-14.049C202.141,77.847,187.903,80.823,174.932,86.224 M132.813,93.336
					c-13.057,12.398-22.32,26.63-28.094,41.536l3.293,1.273c0,0,0,0,0,0.006h0.002l-0.002-0.006
					c5.594-14.425,14.555-28.206,27.23-40.244c22.064-20.957,52.555-32.538,84.205-32.538c3.287,0,6.574,0.122,9.873,0.381
					l0.271-3.529c-3.395-0.259-6.771-0.385-10.145-0.385C186.94,59.83,155.588,71.711,132.813,93.336 M302.202,63.886h-0.006
					c26.664,15.635,49.857,39.617,65.275,71.922c12.801,26.822,18.971,52.197,18.977,77.507c-0.006,26.765-6.92,53.543-20.506,81.94
					l5.311,2.54c13.873-28.975,21.082-56.679,21.082-84.48c0-26.286-6.441-52.585-19.547-80.043
					c-15.918-33.371-39.971-58.258-67.621-74.462L302.202,63.886z M232.59,5.26c-9.465,0-19.219,0.672-29.309,1.995
					c-53.365,7.034-95.166,35.766-120.531,73.394l8.539,5.764c23.838-35.309,62.928-62.278,113.334-68.943
					c9.693-1.276,18.996-1.913,27.967-1.913c46.621,0.069,84.404,16.948,121.395,52.056l7.104-7.463
					C322.948,23.746,281.985,5.26,232.854,5.26C232.766,5.26,232.678,5.26,232.59,5.26 M33.519,132.118
					c-2.059,11.111-3.038,22.028-3.038,32.671c0,13.353,1.541,26.264,4.42,38.582l5.733-1.336
					c-2.781-11.884-4.269-24.348-4.269-37.246c0-10.287,0.942-20.841,2.942-31.6C50.514,73.085,80.434,34.314,134.264,5.096
					l-2.799-5.178C76.442,29.599,44.837,70.52,33.519,132.118"/>
			</defs>
			<clipPath id="SVGID_2_">
				<use xlink:href="#SVGID_1_"  overflow="visible"/>
			</clipPath>
			
				<radialGradient id="SVGID_3_" cx="-2902.9341" cy="2527.5598" r="2.4417" gradientTransform="matrix(79.7062 0 0 79.7062 231578 -201269.4844)" gradientUnits="userSpaceOnUse">
				<stop  offset="0" style="stop-color:#FFF200"/>
				<stop  offset="0.2363" style="stop-color:#FFF200"/>
				<stop  offset="0.5879" style="stop-color:#F15A29"/>
				<stop  offset="0.8517" style="stop-color:#ED1C24"/>
				<stop  offset="1" style="stop-color:#B61C2A"/>
			</radialGradient>
			<rect y="-0.085" clip-path="url(#SVGID_2_)" fill="url(#SVGID_3_)" width="392.334" height="386.365"/>
		</g>
	</g>
</g>
</svg>
